<svg width="2953" height="512" viewBox="0 0 2953 512" fill="none" xmlns="http://www.w3.org/2000/svg">
<circle cx="256" cy="256" r="256" fill="url(#paint0_linear_4_329)"/>
<path d="M382 206.423V390.268L332 320.217V136.372L382 206.423Z" fill="url(#paint1_linear_4_329)"/>
<path d="M382 389.992V390H321.412L130.117 122H190.711L382 389.992Z" fill="url(#paint2_linear_4_329)"/>
<path d="M178 189.246V372.974L130 305.728V122L178 189.246Z" fill="url(#paint3_linear_4_329)"/>
<path d="M2904 385V122H2953V385H2904Z" fill="#0A1B27"/>
<path d="M2777.56 390C2758.5 390 2741.45 385.865 2726.4 377.594C2711.6 369.072 2699.94 357.417 2691.41 342.63C2683.14 327.842 2679 310.799 2679 291.5C2679 272.201 2683.14 255.158 2691.41 240.37C2699.69 225.583 2711.23 214.053 2726.02 205.782C2740.82 197.261 2757.75 193 2776.81 193C2796.12 193 2813.18 197.261 2827.98 205.782C2842.77 214.053 2854.31 225.583 2862.59 240.37C2870.86 255.158 2875 272.201 2875 291.5C2875 310.799 2870.86 327.842 2862.59 342.63C2854.31 357.417 2842.77 369.072 2827.98 377.594C2813.43 385.865 2796.63 390 2777.56 390ZM2777.56 344.134C2786.84 344.134 2795 341.878 2802.02 337.366C2809.04 332.855 2814.43 326.714 2818.19 318.945C2822.21 310.924 2824.21 301.776 2824.21 291.5C2824.21 281.224 2822.21 272.201 2818.19 264.431C2814.18 256.411 2808.54 250.145 2801.26 245.634C2794.24 241.122 2786.09 238.866 2776.81 238.866C2767.78 238.866 2759.63 241.122 2752.36 245.634C2745.34 250.145 2739.82 256.411 2735.81 264.431C2731.79 272.201 2729.79 281.224 2729.79 291.5C2729.79 301.776 2731.79 310.924 2735.81 318.945C2739.82 326.714 2745.46 332.855 2752.74 337.366C2760.01 341.878 2768.28 344.134 2777.56 344.134Z" fill="#0A1B27"/>
<path d="M2578.5 390C2559 390 2541.63 385.865 2526.38 377.594C2511.13 369.072 2499.25 357.417 2490.75 342.63C2482.25 327.592 2478 310.548 2478 291.5C2478 272.201 2482.25 255.158 2490.75 240.37C2499.25 225.583 2511 214.053 2526 205.782C2541 197.261 2558.25 193 2577.75 193C2596.5 193 2613.63 197.637 2629.13 206.91C2644.63 216.184 2655.88 229.593 2662.88 247.137L2616.38 263.679C2612.88 256.411 2607.37 250.646 2599.87 246.385C2592.62 241.874 2584.5 239.618 2575.5 239.618C2566.25 239.618 2558.13 241.874 2551.13 246.385C2544.13 250.646 2538.62 256.662 2534.62 264.431C2530.62 272.201 2528.63 281.224 2528.63 291.5C2528.63 301.776 2530.62 310.799 2534.62 318.569C2538.62 326.088 2544.25 332.103 2551.5 336.615C2558.75 341.126 2567 343.382 2576.25 343.382C2585.25 343.382 2593.38 341.001 2600.63 336.239C2608.13 331.476 2613.63 325.211 2617.13 317.441L2664 333.983C2656.75 351.778 2645.38 365.563 2629.88 375.338C2614.63 385.113 2597.5 390 2578.5 390Z" fill="#0A1B27"/>
<path d="M2361.56 390C2342.5 390 2325.45 385.865 2310.4 377.594C2295.6 369.072 2283.94 357.417 2275.41 342.63C2267.14 327.842 2263 310.799 2263 291.5C2263 272.201 2267.14 255.158 2275.41 240.37C2283.69 225.583 2295.23 214.053 2310.02 205.782C2324.82 197.261 2341.75 193 2360.81 193C2380.12 193 2397.18 197.261 2411.98 205.782C2426.77 214.053 2438.31 225.583 2446.59 240.37C2454.86 255.158 2459 272.201 2459 291.5C2459 310.799 2454.86 327.842 2446.59 342.63C2438.31 357.417 2426.77 369.072 2411.98 377.594C2397.43 385.865 2380.63 390 2361.56 390ZM2361.56 344.134C2370.84 344.134 2378.99 341.878 2386.02 337.366C2393.04 332.855 2398.43 326.714 2402.19 318.945C2406.21 310.924 2408.21 301.776 2408.21 291.5C2408.21 281.224 2406.21 272.201 2402.19 264.431C2398.18 256.411 2392.54 250.145 2385.26 245.634C2378.24 241.122 2370.09 238.866 2360.81 238.866C2351.78 238.866 2343.63 241.122 2336.36 245.634C2329.34 250.145 2323.82 256.411 2319.81 264.431C2315.79 272.201 2313.79 281.224 2313.79 291.5C2313.79 301.776 2315.79 310.924 2319.81 318.945C2323.82 326.714 2329.46 332.855 2336.74 337.366C2344.01 341.878 2352.28 344.134 2361.56 344.134Z" fill="#0A1B27"/>
<path d="M2206.12 390C2185.42 390 2169.72 384.865 2159 374.594C2148.53 364.324 2143.29 349.67 2143.29 330.632V139H2192.65V319.735C2192.65 327.751 2194.4 333.888 2197.89 338.147C2201.38 342.155 2206.49 344.159 2213.22 344.159C2215.71 344.159 2218.46 343.658 2221.45 342.656C2224.44 341.403 2227.56 339.65 2230.8 337.395L2248 374.594C2242.02 379.103 2235.29 382.736 2227.81 385.491C2220.58 388.497 2213.35 390 2206.12 390ZM2113 239.701V197.617H2239.4V239.701H2113Z" fill="#0A1B27"/>
<path d="M2002.56 390C1983.5 390 1966.45 385.865 1951.4 377.594C1936.6 369.072 1924.94 357.417 1916.41 342.63C1908.14 327.842 1904 310.799 1904 291.5C1904 272.201 1908.14 255.158 1916.41 240.37C1924.69 225.583 1936.23 214.053 1951.02 205.782C1965.82 197.261 1982.75 193 2001.81 193C2021.12 193 2038.18 197.261 2052.98 205.782C2067.77 214.053 2079.31 225.583 2087.59 240.37C2095.86 255.158 2100 272.201 2100 291.5C2100 310.799 2095.86 327.842 2087.59 342.63C2079.31 357.417 2067.77 369.072 2052.98 377.594C2038.43 385.865 2021.63 390 2002.56 390ZM2002.56 344.134C2011.84 344.134 2019.99 341.878 2027.02 337.366C2034.04 332.855 2039.43 326.714 2043.19 318.945C2047.21 310.924 2049.21 301.776 2049.21 291.5C2049.21 281.224 2047.21 272.201 2043.19 264.431C2039.18 256.411 2033.54 250.145 2026.26 245.634C2019.24 241.122 2011.09 238.866 2001.81 238.866C1992.78 238.866 1984.63 241.122 1977.36 245.634C1970.34 250.145 1964.82 256.411 1960.81 264.431C1956.79 272.201 1954.79 281.224 1954.79 291.5C1954.79 301.776 1956.79 310.924 1960.81 318.945C1964.82 326.714 1970.46 332.855 1977.74 337.366C1985.01 341.878 1993.28 344.134 2002.56 344.134Z" fill="#0A1B27"/>
<path d="M1810.91 286.506C1810.91 266.283 1814.79 249.555 1822.55 236.323C1830.56 223.09 1840.69 213.228 1852.96 206.737C1865.47 200.246 1878.49 197 1892 197V244.936C1880.49 244.936 1869.6 246.309 1859.34 249.056C1849.33 251.802 1841.2 256.296 1834.94 262.538C1828.68 268.78 1825.55 276.769 1825.55 286.506H1810.91ZM1776 385V197.749H1825.55V385H1776Z" fill="#0A1B27"/>
<path d="M1561 385V122H1658.5C1677 122 1693.38 125.757 1707.63 133.271C1721.88 140.535 1733 150.805 1741 164.08C1749 177.105 1753 192.259 1753 209.541C1753 226.574 1749.12 241.728 1741.37 255.003C1733.62 268.278 1723 278.798 1709.5 286.563C1696 294.077 1680.38 297.834 1662.63 297.834H1612.38V385H1561ZM1612.38 250.494H1661.5C1673 250.494 1682.38 246.737 1689.62 239.223C1697.12 231.458 1700.88 221.564 1700.88 209.541C1700.88 197.519 1696.75 187.75 1688.5 180.236C1680.5 172.721 1670.12 168.964 1657.37 168.964H1612.38V250.494Z" fill="#0A1B27"/>
<path d="M1348.38 390C1329.78 390 1313.32 385.865 1298.99 377.594C1284.67 369.072 1273.36 357.417 1265.06 342.63C1257.02 327.842 1253 310.799 1253 291.5C1253 272.201 1257.15 255.158 1265.44 240.37C1273.99 225.583 1285.55 214.053 1300.12 205.782C1314.95 197.261 1331.92 193 1351.02 193C1367.6 193 1382.81 197.386 1396.63 206.158C1410.71 214.68 1421.89 227.337 1430.18 244.13C1438.73 260.672 1443 280.848 1443 304.658H1300.12L1304.65 300.147C1304.65 309.42 1306.91 317.566 1311.43 324.584C1316.21 331.351 1322.24 336.615 1329.53 340.374C1337.07 343.883 1345.11 345.637 1353.65 345.637C1363.96 345.637 1372.38 343.507 1378.91 339.246C1385.45 334.735 1390.47 328.97 1393.99 321.952L1438.48 339.246C1433.2 349.773 1426.29 358.921 1417.74 366.691C1409.45 374.21 1399.52 379.975 1387.96 383.985C1376.4 387.995 1363.21 390 1348.38 390ZM1307.29 272.326L1302.76 267.815H1393.62L1389.47 272.326C1389.47 263.303 1387.33 256.16 1383.06 250.897C1378.79 245.383 1373.51 241.373 1367.23 238.866C1361.19 236.36 1355.29 235.107 1349.51 235.107C1343.73 235.107 1337.57 236.36 1331.04 238.866C1324.5 241.373 1318.85 245.383 1314.07 250.897C1309.55 256.16 1307.29 263.303 1307.29 272.326Z" fill="#0A1B27"/>
<path d="M1196.81 390C1175.96 390 1160.14 384.865 1149.34 374.594C1138.79 364.324 1133.52 349.67 1133.52 330.632V139H1183.24V319.735C1183.24 327.751 1185 333.888 1188.52 338.147C1192.03 342.155 1197.18 344.159 1203.96 344.159C1206.48 344.159 1209.24 343.658 1212.25 342.656C1215.27 341.403 1218.41 339.65 1221.67 337.395L1239 374.594C1232.97 379.103 1226.19 382.736 1218.66 385.491C1211.37 388.497 1204.09 390 1196.81 390ZM1103 239.701V197.617H1230.34V239.701H1103Z" fill="#0A1B27"/>
<path d="M1027.75 385V197.415H1077.25V385H1027.75ZM1052.5 167.026C1045 167.026 1038.38 164.275 1032.63 158.772C1026.88 153.02 1024 146.266 1024 138.513C1024 130.759 1026.88 124.131 1032.63 118.629C1038.38 112.876 1045 110 1052.5 110C1060.25 110 1066.87 112.876 1072.37 118.629C1078.12 124.131 1081 130.759 1081 138.513C1081 146.266 1078.12 153.02 1072.37 158.772C1066.87 164.275 1060.25 167.026 1052.5 167.026Z" fill="#0A1B27"/>
<path d="M745 385V122H798.654L926.973 298.586V122H978V385H926.973L796.403 205.033V385H745Z" fill="#0A1B27"/>
<defs>
<linearGradient id="paint0_linear_4_329" x1="256" y1="0" x2="256" y2="512" gradientUnits="userSpaceOnUse">
<stop stop-color="#232F37"/>
<stop offset="1" stop-color="#121A22"/>
</linearGradient>
<linearGradient id="paint1_linear_4_329" x1="364" y1="323.588" x2="331.593" y2="140.852" gradientUnits="userSpaceOnUse">
<stop stop-color="#C7D5D6"/>
<stop offset="1" stop-color="#738585"/>
</linearGradient>
<linearGradient id="paint2_linear_4_329" x1="202" y1="397.512" x2="246.665" y2="198.37" gradientUnits="userSpaceOnUse">
<stop stop-color="#C7D5D6"/>
<stop offset="1" stop-color="#849E9F"/>
</linearGradient>
<linearGradient id="paint3_linear_4_329" x1="202" y1="397.512" x2="246.665" y2="198.37" gradientUnits="userSpaceOnUse">
<stop stop-color="#C7D5D6"/>
<stop offset="1" stop-color="#849E9F"/>
</linearGradient>
</defs>
</svg>
